<svg xmlns="http://www.w3.org/2000/svg" viewBox="0 0 640 360" preserveAspectRatio="xMidYMid slice"><defs><linearGradient id="w" x1="0" y1="0" x2="0" y2="1"><stop offset="0" stop-color="#b98048"/><stop offset="1" stop-color="#d9a066"/></linearGradient><linearGradient id="v" x1="0" y1="0" x2="0" y2="1"><stop offset="0" stop-color="#0b0f19"/><stop offset="1" stop-color="#1b2234"/></linearGradient></defs><rect width="640" height="360" fill="url(#v)"/><circle cx="152" cy="29" r="4.4" fill="#33384a"/><circle cx="303" cy="31" r="5.0" fill="#26394a"/><circle cx="300" cy="29" r="4.0" fill="#4a2d3a"/><circle cx="301" cy="42" r="4.7" fill="#4a2d3a"/><circle cx="551" cy="15" r="3.9" fill="#33384a"/><circle cx="250" cy="5" r="5.4" fill="#3b2f4a"/><circle cx="485" cy="31" r="4.3" fill="#2a3550"/><circle cx="527" cy="16" r="5.0" fill="#4a3a2d"/><circle cx="457" cy="46" r="4.5" fill="#26394a"/><circle cx="369" cy="48" r="3.8" fill="#2d4a52"/><circle cx="62" cy="10" r="4.0" fill="#4a2d3a"/><circle cx="279" cy="33" r="4.3" fill="#33384a"/><circle cx="533" cy="30" r="4.8" fill="#4a3a2d"/><circle cx="374" cy="46" r="5.2" fill="#2a3550"/><circle cx="548" cy="50" r="5.2" fill="#3b2f4a"/><circle cx="447" cy="19" r="4.9" fill="#33384a"/><circle cx="364" cy="37" r="4.0" fill="#26394a"/><circle cx="632" cy="16" r="3.8" fill="#4a3a2d"/><circle cx="547" cy="50" r="3.7" fill="#26394a"/><circle cx="43" cy="45" r="3.6" fill="#4a3a2d"/><circle cx="492" cy="44" r="3.6" fill="#33384a"/><circle cx="487" cy="21" r="5.0" fill="#33384a"/><circle cx="564" cy="49" r="4.8" fill="#2a3550"/><circle cx="198" cy="8" r="5.0" fill="#2a3550"/><circle cx="607" cy="49" r="4.2" fill="#2d4a52"/><circle cx="100" cy="6" r="5.7" fill="#2d4a52"/><circle cx="231" cy="10" r="5.7" fill="#4a3a2d"/><circle cx="295" cy="28" r="5.1" fill="#33384a"/><circle cx="436" cy="9" r="5.9" fill="#26394a"/><circle cx="324" cy="24" r="5.3" fill="#3b2f4a"/><circle cx="599" cy="24" r="4.1" fill="#2d4a52"/><circle cx="351" cy="5" r="4.5" fill="#33384a"/><circle cx="202" cy="21" r="5.0" fill="#3b2f4a"/><circle cx="38" cy="33" r="4.7" fill="#4a2d3a"/><circle cx="587" cy="32" r="4.2" fill="#4a3a2d"/><circle cx="14" cy="7" r="5.2" fill="#2d4a52"/><circle cx="161" cy="25" r="5.0" fill="#2d4a52"/><circle cx="114" cy="13" r="5.4" fill="#26394a"/><circle cx="381" cy="18" r="4.4" fill="#26394a"/><circle cx="520" cy="49" r="5.2" fill="#3b2f4a"/><circle cx="198" cy="14" r="5.5" fill="#3b2f4a"/><circle cx="210" cy="35" r="5.1" fill="#2a3550"/><circle cx="65" cy="19" r="4.3" fill="#26394a"/><circle cx="144" cy="41" r="5.9" fill="#2a3550"/><circle cx="215" cy="34" r="5.7" fill="#4a3a2d"/><circle cx="173" cy="40" r="3.6" fill="#3b2f4a"/><circle cx="202" cy="42" r="4.9" fill="#26394a"/><circle cx="178" cy="41" r="5.1" fill="#26394a"/><circle cx="396" cy="31" r="4.6" fill="#33384a"/><circle cx="508" cy="16" r="4.4" fill="#4a3a2d"/><circle cx="186" cy="30" r="3.6" fill="#4a3a2d"/><circle cx="100" cy="4" r="5.9" fill="#33384a"/><circle cx="632" cy="24" r="5.9" fill="#4a2d3a"/><circle cx="142" cy="38" r="5.6" fill="#4a2d3a"/><circle cx="479" cy="48" r="4.9" fill="#3b2f4a"/><circle cx="551" cy="43" r="5.9" fill="#2a3550"/><circle cx="519" cy="6" r="5.8" fill="#4a2d3a"/><circle cx="328" cy="13" r="5.7" fill="#4a3a2d"/><circle cx="369" cy="5" r="5.4" fill="#3b2f4a"/><circle cx="322" cy="15" r="3.5" fill="#33384a"/><rect y="54" width="640" height="26" fill="#1d2740"/><polygon points="0,80 640,80 640,360 0,360" fill="url(#w)"/><g fill="none" stroke="#f4e7cf" stroke-width="5" opacity=".9"><path d="M0 130h640"/><path d="M0 330h640"/></g><rect x="26" y="92" width="28" height="30" rx="4" fill="#232d46"/><g transform="translate(40,150)"><ellipse cx="0" cy="4.0" rx="14.0" ry="4.4" fill="#000" opacity=".28"/><rect x="-8.0" y="-28.0" width="16.0" height="17.36" rx="4.0" fill="#F5A524"/><circle cx="0" cy="-35.0" r="7.2" fill="#e2b48f"/><rect x="-6.4" y="-10.64" width="5.2" height="11.200000000000001" fill="#1b2230"/><rect x="1.2" y="-10.64" width="5.2" height="11.200000000000001" fill="#1b2230"/></g><rect x="110" y="92" width="28" height="30" rx="4" fill="#232d46"/><g transform="translate(124,150)"><ellipse cx="0" cy="4.0" rx="14.0" ry="4.4" fill="#000" opacity=".28"/><rect x="-8.0" y="-28.0" width="16.0" height="17.36" rx="4.0" fill="#F5A524"/><circle cx="0" cy="-35.0" r="7.2" fill="#e2b48f"/><rect x="-6.4" y="-10.64" width="5.2" height="11.200000000000001" fill="#1b2230"/><rect x="1.2" y="-10.64" width="5.2" height="11.200000000000001" fill="#1b2230"/></g><rect x="194" y="92" width="28" height="30" rx="4" fill="#232d46"/><g transform="translate(208,150)"><ellipse cx="0" cy="4.0" rx="14.0" ry="4.4" fill="#000" opacity=".28"/><rect x="-8.0" y="-28.0" width="16.0" height="17.36" rx="4.0" fill="#F5A524"/><circle cx="0" cy="-35.0" r="7.2" fill="#e2b48f"/><rect x="-6.4" y="-10.64" width="5.2" height="11.200000000000001" fill="#1b2230"/><rect x="1.2" y="-10.64" width="5.2" height="11.200000000000001" fill="#1b2230"/></g><rect x="278" y="92" width="28" height="30" rx="4" fill="#232d46"/><g transform="translate(292,150)"><ellipse cx="0" cy="4.0" rx="14.0" ry="4.4" fill="#000" opacity=".28"/><rect x="-8.0" y="-28.0" width="16.0" height="17.36" rx="4.0" fill="#F5A524"/><circle cx="0" cy="-35.0" r="7.2" fill="#e2b48f"/><rect x="-6.4" y="-10.64" width="5.2" height="11.200000000000001" fill="#1b2230"/><rect x="1.2" y="-10.64" width="5.2" height="11.200000000000001" fill="#1b2230"/></g><rect x="362" y="92" width="28" height="30" rx="4" fill="#232d46"/><g transform="translate(376,150)"><ellipse cx="0" cy="4.0" rx="14.0" ry="4.4" fill="#000" opacity=".28"/><rect x="-8.0" y="-28.0" width="16.0" height="17.36" rx="4.0" fill="#F5A524"/><circle cx="0" cy="-35.0" r="7.2" fill="#e2b48f"/><rect x="-6.4" y="-10.64" width="5.2" height="11.200000000000001" fill="#1b2230"/><rect x="1.2" y="-10.64" width="5.2" height="11.200000000000001" fill="#1b2230"/></g><rect x="446" y="92" width="28" height="30" rx="4" fill="#232d46"/><g transform="translate(460,150)"><ellipse cx="0" cy="4.0" rx="14.0" ry="4.4" fill="#000" opacity=".28"/><rect x="-8.0" y="-28.0" width="16.0" height="17.36" rx="4.0" fill="#F5A524"/><circle cx="0" cy="-35.0" r="7.2" fill="#e2b48f"/><rect x="-6.4" y="-10.64" width="5.2" height="11.200000000000001" fill="#1b2230"/><rect x="1.2" y="-10.64" width="5.2" height="11.200000000000001" fill="#1b2230"/></g><rect x="530" y="92" width="28" height="30" rx="4" fill="#232d46"/><g transform="translate(544,150)"><ellipse cx="0" cy="4.0" rx="14.0" ry="4.4" fill="#000" opacity=".28"/><rect x="-8.0" y="-28.0" width="16.0" height="17.36" rx="4.0" fill="#F5A524"/><circle cx="0" cy="-35.0" r="7.2" fill="#e2b48f"/><rect x="-6.4" y="-10.64" width="5.2" height="11.200000000000001" fill="#1b2230"/><rect x="1.2" y="-10.64" width="5.2" height="11.200000000000001" fill="#1b2230"/></g><rect x="30" y="300" width="580" height="36" rx="3" fill="#10161f" opacity=".85"/></svg>